<svg xmlns="http://www.w3.org/2000/svg" viewBox="0 0 424.01 144.26"><defs><style>.cls-1{opacity:0.33;}.cls-2{fill:#c6c6c5;}.cls-3{fill:#fff;}</style></defs><g id="Layer_2" data-name="Layer 2"><g id="Capa_1" data-name="Capa 1"><g class="cls-1"><path class="cls-2" d="M28.14,110.85q-5.05-5.59-5.05-16.06V89.86H35.9v5.91q0,8.37,7,8.37a6.57,6.57,0,0,0,5.23-2q1.78-2,1.79-6.59A18.27,18.27,0,0,0,47.47,86Q45,81.86,38.36,76.07,30,68.69,26.66,62.71a27.29,27.29,0,0,1-3.32-13.48q0-10.21,5.17-15.82t15-5.6q9.72,0,14.71,5.6t5,16.07v3.57H50.42V48.62c0-3-.57-5.11-1.72-6.47a6.26,6.26,0,0,0-5.05-2q-6.76,0-6.77,8.25a16.29,16.29,0,0,0,2.52,8.74q2.54,4.06,9.18,9.85,8.49,7.4,11.69,13.42a29.71,29.71,0,0,1,3.2,14.16q0,10.59-5.23,16.25T43,116.45Q33.19,116.45,28.14,110.85Z"/><path class="cls-2" d="M81.33,29H99.67l14,86.18H100.16L97.7,98.11v.25H82.31l-2.46,16.86H67.29ZM96.1,86.66l-6-42.6h-.25l-5.91,42.6Z"/><path class="cls-2" d="M131.31,29h18.34l14,86.18H150.14l-2.46-17.11v.25H132.29l-2.46,16.86H117.27Zm14.77,57.62-6-42.6h-.25l-5.91,42.6Z"/><path class="cls-2" d="M163.19,29h13.67l8.86,66.85H186L194.83,29h12.44l-13.05,86.18h-18Z"/><path class="cls-2" d="M213.79,29h36.94V41.35h-23.4V64.13h18.59V76.44H227.33v26.47h23.4v12.31H213.79Z"/><path class="cls-2" d="M258.48,29h20.68q10.09,0,15.15,5.42t5,15.88V93.92q0,10.47-5,15.89t-15.15,5.41H258.48Zm20.44,73.87a6.53,6.53,0,0,0,5.11-2c1.19-1.31,1.78-3.45,1.78-6.4V49.73c0-3-.59-5.09-1.78-6.41a6.56,6.56,0,0,0-5.11-2H272v61.56Z"/><path class="cls-2" d="M308.46,29h20.07Q339,29,343.8,33.9t4.8,15v5.3q0,13.43-8.87,17v.24a10.57,10.57,0,0,1,7,6q2,4.54,2,12.19v15.14a56.16,56.16,0,0,0,.25,6,14.67,14.67,0,0,0,1.23,4.49H336.41a19.53,19.53,0,0,1-1-3.94,57.41,57.41,0,0,1-.25-6.64V88.88q0-5.91-1.91-8.25t-6.59-2.34H322v36.93H308.46ZM326.93,66q4.06,0,6.09-2.1t2-7V50.22q0-4.68-1.67-6.77c-1.1-1.4-2.85-2.1-5.23-2.1H322V66Z"/><path class="cls-2" d="M368.54,29h18.35l14,86.18H387.38l-2.46-17.11v.25H369.53l-2.46,16.86H354.51Zm14.78,57.62-6-42.6H377l-5.91,42.6Z"/></g><path class="cls-3" d="M99.4,76.79c-12,.91-51.9,9.26-68.59,17.91,9.1,12.14,8.65,29.9-14.27,32-14.11,1.22-25-7.44-7.43-20A173.58,173.58,0,0,1,29.44,94.55,139.87,139.87,0,0,0,19.27,83.47C-14.11,49.32,41,6.68,76.94,5.31,106.39,4.25,87.42,47.5,66.62,53.57c-3.79,1.22-4.55-1.82.31-3,17-4.4,36.27-43.71,9.56-43.41C44.47,7.44-13.2,48.87,20,82.86A122.36,122.36,0,0,1,30.35,94.09C47.2,85.29,87.42,76.79,99.71,76,101.23,75.88,101.07,76.79,99.4,76.79ZM29.9,95.15A184.87,184.87,0,0,0,9.56,107.3C-3.79,117.92,2.43,127,16.69,125.81,39,123.84,38.55,106.69,29.9,95.15Z"/><path class="cls-3" d="M140.68,76.64a169.38,169.38,0,0,1-17.15,8.8c-4.85,2-8.65,3-11.07,3-4.86,0-3.8-4.56-2.13-8.8a66.57,66.57,0,0,1-7.74,6.37c-2.12,1.52-7,4.1-9.71,4.1-7.59,0,5.46-17.91,15.63-17.91,2,0,3,.76,3.49,2.58.15.91-1.67,1.82-1.82.91a2.2,2.2,0,0,0-2.43-1.67c-9.11,0-20.49,15.18-14.72,15.18,2.58,0,7.44-2.74,9.26-3.8a79.64,79.64,0,0,0,8.8-7.59l1.67-3.34c.61-1.21,2.88-.91,1.82.76-2,3.19-7.74,12.3-1.82,12.3,2.28,0,5.92-.91,10.62-3a137.84,137.84,0,0,0,17-8.65Z"/><path class="cls-3" d="M196.68,76.64c-6.67,4-16.54,9.71-23.37,9.71-10.62,0-7-8.95-11.53-8.95S149.64,87.26,143,87.57c-7.29,0-3.34-9.56-1.67-14.88.61-1.82,3-1.82,2.43,0-1.06,4-5.31,14-.46,14,5.62,0,14.72-11.39,19.28-11.39,5.46,0,2,10.32,11.08,10.32,6.52,0,16.39-5.91,22.76-9.71Z"/><path class="cls-3" d="M285,40.67l-68.45,1.67c-3.64,6.68-18.51,34-27.92,54.94-2.89,6.37-14,28.53-3,28.53,16.85,0,50.08-36.42,73.3-49.93l.31.76c-21.55,12.44-56.46,49.93-73.91,50.23-13.05.15-2.43-22.31,1.06-30.05,8.35-19,21.4-43.25,25.95-51.29l2-3.19-34.44,1.82c-1.07,0-.61-2,.6-2L215,41.13c7.14-12,25-41.13,29.9-41.13,5.62,0-24.58,37.33-27.62,41.13l68-1.37C286.22,39.76,286.07,40.52,285,40.67Zm-65-4.4C221.72,34.3,248,1.06,244.49.91,240.84.76,222.63,32.17,220.05,36.27Z"/><path class="cls-3" d="M287.74,76.64a171.34,171.34,0,0,1-17,8.8c-4.86,2-8.65,3-11.23,3-8.5,0,1.52-17.3,3.64-21.1.61-1.21,3.19-.3,2.28,1.07-2,3-12.75,19.27-5.62,19.12,2.28,0,5.92-.91,10.78-3a137.36,137.36,0,0,0,16.84-8.65ZM268.61,58.28a9.25,9.25,0,0,1,2.13-2.43c.3.15,0,1.36-.91,2.88a5.71,5.71,0,0,1-2.13,2.43C267.55,61,267.7,59.79,268.61,58.28Z"/><path class="cls-3" d="M328.56,76.64a171.51,171.51,0,0,1-17.15,8.8c-4.86,2-8.65,3-11.08,3-4.86,0-3.79-4.56-2.12-8.8a67.42,67.42,0,0,1-7.74,6.37c-2.13,1.52-7,4.1-9.72,4.1-7.59,0,5.47-17.91,15.63-17.91,2,0,3,.76,3.5,2.58.15.91-1.67,1.82-1.83.91a2.18,2.18,0,0,0-2.42-1.67c-9.11,0-20.49,15.18-14.73,15.18,2.59,0,7.44-2.74,9.26-3.8a78.72,78.72,0,0,0,8.8-7.59l1.67-3.34c.61-1.21,2.89-.91,1.82.76-2,3.19-7.74,12.3-1.82,12.3,2.28,0,5.92-.91,10.63-3a137.81,137.81,0,0,0,17-8.65Z"/><path class="cls-3" d="M373.93,76.64a369.23,369.23,0,0,0-37.48,24.43c-5,9.26-14.72,23.37-22.31,31.57-14,15-27.77,17.6-7.74-5a176.05,176.05,0,0,1,28.08-26.1c4.25-7.89,7.13-16.69,10-27.17A59.31,59.31,0,0,1,335.54,82c-2.13,1.52-7,4.1-9.71,4.1-7.59,0,5.61-17.76,15.63-17.76A3.51,3.51,0,0,1,345.1,71c.15,1.07-2,2.13-2.13,1.22a2.5,2.5,0,0,0-2.73-2c-8.95,0-20,14.87-14.26,14.87,2.58,0,7.59-2.73,9.25-3.8A58.3,58.3,0,0,0,345,72.69l.15-.15c.46-1.67,3.19-2.12,2.58.15a122.32,122.32,0,0,1-10.47,26.87,398.71,398.71,0,0,1,36.42-23.68ZM333.57,103.2A177.25,177.25,0,0,0,307,127.94c-19.28,21.85-6.07,17.9,6.52,4.24C321,124.14,328.25,112.3,333.57,103.2Z"/><path class="cls-3" d="M424,76.64c-7.13,3.49-29.29,5-36.27,5.16-.91,5.92-6.52,12.44-13.05,12.44-13.05,0-4.1-19.12,5.46-24.13,2.28-1.06,4.26.16,1.22,2-8.65,5.16-17.45,21.4-6.53,21.4,6.07,0,10.93-5.92,12-11.69a39.45,39.45,0,0,1-4.25,0c-7.43-.61-5-6.68.91-6.68,3.34,0,4.56,2.89,4.25,5.77,6.83-.15,29-1.52,36.12-5ZM383.34,76c-5,0-6.67,4.4-.6,4.86a39.26,39.26,0,0,0,4.24,0C387,78.46,386.07,76,383.34,76Z"/></g></g></svg>